HIERARCHY
ROOT Hips
{
	OFFSET 0.000000 103.266502 0.000000
	CHANNELS 6 Xposition Yposition Zposition Xrotation Yrotation Zrotation 
	JOINT Spine
	{
		OFFSET -0.002400 12.777504 0.315300
		CHANNELS 3 Xrotation Yrotation Zrotation
		JOINT Spine1
		{
			OFFSET -0.002067 5.816869 0.032633
			CHANNELS 3 Xrotation Yrotation Zrotation
			JOINT Spine1_split
			{
				OFFSET -0.002067 5.816869 0.032633
				CHANNELS 3 Xrotation Yrotation Zrotation
				JOINT Spine2
				{
					OFFSET -0.002067 5.816869 0.032633
					CHANNELS 3 Xrotation Yrotation Zrotation
					JOINT Neck
					{
						OFFSET -0.003700 21.199493 -0.826900
						CHANNELS 3 Xrotation Yrotation Zrotation
						JOINT Head
						{
							OFFSET 0.000000 20.442200 4.834800
							CHANNELS 3 Xrotation Yrotation Zrotation
							JOINT HeadTop_End
							{
								OFFSET 0.000000 34.668396 4.968400
								CHANNELS 3 Xrotation Yrotation Zrotation
								End Site
								{
									OFFSET 0.000000 0.000000 0.000000
								}
							}
						}
					}
					JOINT LeftShoulder
					{
						OFFSET 3.288150 8.794197 -1.372250
						CHANNELS 3 Xrotation Yrotation Zrotation
						JOINT LeftShoulder_split
						{
							OFFSET 3.288150 8.794197 -1.372250
							CHANNELS 3 Xrotation Yrotation Zrotation
							JOINT LeftArm
							{
								OFFSET 11.953299 -2.279007 -0.146200
								CHANNELS 3 Xrotation Yrotation Zrotation
								JOINT LeftForeArm
								{
									OFFSET 18.448900 0.000000 0.000000
									CHANNELS 3 Xrotation Yrotation Zrotation
									JOINT LeftHand
									{
										OFFSET 29.527798 0.000000 0.000000
										CHANNELS 3 Xrotation Yrotation Zrotation
										JOINT LeftHandThumb1
										{
											OFFSET 10.739754 -2.369614 9.225399
											CHANNELS 3 Xrotation Yrotation Zrotation
											JOINT LeftHandThumb2
											{
												OFFSET 4.926170 -2.844131 2.844125
												CHANNELS 3 Xrotation Yrotation Zrotation
												JOINT LeftHandThumb3
												{
													OFFSET 4.614891 -2.664413 2.664409
													CHANNELS 3 Xrotation Yrotation Zrotation
													JOINT LeftHandThumb4
													{
														OFFSET 4.432465 -2.559082 2.559083
														CHANNELS 3 Xrotation Yrotation Zrotation
														End Site
														{
															OFFSET 0.000000 0.000000 0.000000
														}
													}
												}
											}
										}
										JOINT LeftHandIndex1
										{
											OFFSET 26.467674 0.187653 6.405298
											CHANNELS 3 Xrotation Yrotation Zrotation
											JOINT LeftHandIndex2
											{
												OFFSET 8.792900 0.000000 0.000000
												CHANNELS 3 Xrotation Yrotation Zrotation
												JOINT LeftHandIndex3
												{
													OFFSET 10.075203 0.000000 0.000000
													CHANNELS 3 Xrotation Yrotation Zrotation
													End Site
													{
														OFFSET 0.000000 0.000000 0.000000
													}
												}
											}
										}
										JOINT LeftHandMiddle1
										{
											OFFSET 25.764404 0.000000 0.000000
											CHANNELS 3 Xrotation Yrotation Zrotation
											JOINT LeftHandMiddle2
											{
												OFFSET 9.393974 0.000000 0.000000
												CHANNELS 3 Xrotation Yrotation Zrotation
												JOINT LeftHandMiddle3
												{
													OFFSET 10.771950 0.000000 0.000000
													CHANNELS 3 Xrotation Yrotation Zrotation
													End Site
													{
														OFFSET 0.000000 0.000000 0.000000
													}
												}
											}
										}
										JOINT LeftHandRing1
										{
											OFFSET 24.660927 0.144547 -6.225808
											CHANNELS 3 Xrotation Yrotation Zrotation
											JOINT LeftHandRing2
											{
												OFFSET 9.393799 0.000000 0.000000
												CHANNELS 3 Xrotation Yrotation Zrotation
												JOINT LeftHandRing3
												{
													OFFSET 9.928497 0.000000 0.000000
													CHANNELS 3 Xrotation Yrotation Zrotation
													End Site
													{
														OFFSET 0.000000 0.000000 0.000000
													}
												}
											}
										}
										JOINT LeftHandPinky1
										{
											OFFSET 23.655350 0.125290 -12.815412
											CHANNELS 3 Xrotation Yrotation Zrotation
											JOINT LeftHandPinky2
											{
												OFFSET 8.425102 0.000000 0.000000
												CHANNELS 3 Xrotation Yrotation Zrotation
												JOINT LeftHandPinky3
												{
													OFFSET 8.147003 0.000000 0.000000
													CHANNELS 3 Xrotation Yrotation Zrotation
													End Site
													{
														OFFSET 0.000000 0.000000 0.000000
													}
												}
											}
										}
									}
								}
							}
						}
					}
					JOINT RightShoulder
					{
						OFFSET -3.249400 8.794197 -1.372250
						CHANNELS 3 Xrotation Yrotation Zrotation
						JOINT RightShoulder_split
						{
							OFFSET -3.249400 8.794197 -1.372250
							CHANNELS 3 Xrotation Yrotation Zrotation
							JOINT RightArm
							{
								OFFSET -11.953299 -2.279007 -0.146200
								CHANNELS 3 Xrotation Yrotation Zrotation
								JOINT RightForeArm
								{
									OFFSET -18.448900 0.000000 0.000000
									CHANNELS 3 Xrotation Yrotation Zrotation
									JOINT RightHand
									{
										OFFSET -29.527802 0.000000 0.000000
										CHANNELS 3 Xrotation Yrotation Zrotation
										JOINT RightHandThumb1
										{
											OFFSET -10.739754 -2.369614 9.225399
											CHANNELS 3 Xrotation Yrotation Zrotation
											JOINT RightHandThumb2
											{
												OFFSET -4.926170 -2.844131 2.844125
												CHANNELS 3 Xrotation Yrotation Zrotation
												JOINT RightHandThumb3
												{
													OFFSET -4.614891 -2.664413 2.664409
													CHANNELS 3 Xrotation Yrotation Zrotation
													JOINT RightHandThumb4
													{
														OFFSET -4.432465 -2.559082 2.559083
														CHANNELS 3 Xrotation Yrotation Zrotation
														End Site
														{
															OFFSET 0.000000 0.000000 0.000000
														}
													}
												}
											}
										}
										JOINT RightHandIndex1
										{
											OFFSET -26.467674 0.187653 6.405298
											CHANNELS 3 Xrotation Yrotation Zrotation
											JOINT RightHandIndex2
											{
												OFFSET -8.792900 0.000000 0.000000
												CHANNELS 3 Xrotation Yrotation Zrotation
												JOINT RightHandIndex3
												{
													OFFSET -10.075203 0.000000 0.000000
													CHANNELS 3 Xrotation Yrotation Zrotation
													End Site
													{
														OFFSET 0.000000 0.000000 0.000000
													}
												}
											}
										}
										JOINT RightHandMiddle1
										{
											OFFSET -25.764404 0.000000 0.000000
											CHANNELS 3 Xrotation Yrotation Zrotation
											JOINT RightHandMiddle2
											{
												OFFSET -9.393974 0.000000 0.000000
												CHANNELS 3 Xrotation Yrotation Zrotation
												JOINT RightHandMiddle3
												{
													OFFSET -10.771950 0.000000 0.000000
													CHANNELS 3 Xrotation Yrotation Zrotation
													End Site
													{
														OFFSET 0.000000 0.000000 0.000000
													}
												}
											}
										}
										JOINT RightHandRing1
										{
											OFFSET -24.660927 0.144547 -6.225808
											CHANNELS 3 Xrotation Yrotation Zrotation
											JOINT RightHandRing2
											{
												OFFSET -9.393799 0.000000 0.000000
												CHANNELS 3 Xrotation Yrotation Zrotation
												JOINT RightHandRing3
												{
													OFFSET -9.928497 0.000000 0.000000
													CHANNELS 3 Xrotation Yrotation Zrotation
													End Site
													{
														OFFSET 0.000000 0.000000 0.000000
													}
												}
											}
										}
										JOINT RightHandPinky1
										{
											OFFSET -23.655350 0.125290 -12.815412
											CHANNELS 3 Xrotation Yrotation Zrotation
											JOINT RightHandPinky2
											{
												OFFSET -8.425102 0.000000 0.000000
												CHANNELS 3 Xrotation Yrotation Zrotation
												JOINT RightHandPinky3
												{
													OFFSET -8.147003 0.000000 0.000000
													CHANNELS 3 Xrotation Yrotation Zrotation
													End Site
													{
														OFFSET 0.000000 0.000000 0.000000
													}
												}
											}
										}
									}
								}
							}
						}
					}
				}
			}
		}
	}
	JOINT LeftUpLeg
	{
		OFFSET 11.394100 -6.187798 -0.413800
		CHANNELS 3 Xrotation Yrotation Zrotation
		JOINT LeftLeg
		{
			OFFSET 0.430247 -32.302673 3.732800
			CHANNELS 3 Xrotation Yrotation Zrotation
			JOINT LeftFoot
			{
				OFFSET -0.430247 -48.264931 -6.423300
				CHANNELS 3 Xrotation Yrotation Zrotation
				JOINT LeftToeBase
				{
					OFFSET 4.230900 -16.068199 23.438400
					CHANNELS 3 Xrotation Yrotation Zrotation
					JOINT LeftToe_End
					{
						OFFSET 4.510700 0.695400 19.974600
						CHANNELS 3 Xrotation Yrotation Zrotation
						End Site
						{
							OFFSET 0.000000 0.000000 0.000000
						}
					}
				}
			}
		}
	}
	JOINT RightUpLeg
	{
		OFFSET -11.333700 -6.187798 -0.413800
		CHANNELS 3 Xrotation Yrotation Zrotation
		JOINT RightLeg
		{
			OFFSET -0.430392 -32.302628 3.733000
			CHANNELS 3 Xrotation Yrotation Zrotation
			JOINT RightFoot
			{
				OFFSET 0.430392 -48.264973 -6.423500
				CHANNELS 3 Xrotation Yrotation Zrotation
				JOINT RightToeBase
				{
					OFFSET -4.230900 -16.068199 23.438400
					CHANNELS 3 Xrotation Yrotation Zrotation
					JOINT RightToe_End
					{
						OFFSET -4.510700 0.695400 19.974600
						CHANNELS 3 Xrotation Yrotation Zrotation
						End Site
						{
							OFFSET 0.000000 0.000000 0.000000
						}
					}
				}
			}
		}
	}
}
MOTION
Frames: 4
Frame Time: 0.016667
-0.301238 89.714905 0.171705 3.020392 -58.275147 6.520218 11.191475 0.139473 -2.738947 8.434584 0.027705 -5.592322 0.000000 0.000000 0.000000 8.457062 0.027849 -5.591865 -21.555642 25.063369 12.062563 -0.294041 25.465758 -3.208976 -0.000000 0.000000 -0.000001 -6.221673 -11.503858 -4.023830 0.000000 0.000000 0.000000 -23.062175 9.568543 -36.639594 0.046100 -43.169121 -0.011176 22.743744 -5.685859 15.979287 -1.064237 -7.954917 8.490075 2.373405 19.986091 -2.038342 0.808199 1.237778 2.631748 0.000000 -0.000000 -0.000000 13.340879 -1.006683 10.682257 -0.167585 0.303382 -31.105631 -0.000000 -0.000001 0.000000 8.495445 -0.329584 -0.915310 0.231520 0.661196 -29.901875 -0.000001 0.000001 -0.000002 6.111749 3.150887 -16.210964 0.047050 0.322408 -30.125482 0.000000 0.000000 -0.000000 -5.636019 7.709845 -13.878628 0.224388 0.276602 -46.588389 0.000000 -0.000002 0.000000 -5.488240 10.658262 2.466535 0.000000 0.000000 0.000000 -41.473814 -26.755588 30.079077 24.955467 111.862980 -23.308456 -8.702493 12.423022 -9.801981 0.265014 10.061121 -10.888495 1.383812 -17.412881 3.016297 3.342334 -13.253722 -8.262751 -0.000001 -0.000001 0.000002 19.443600 11.174441 -13.340194 -0.118654 -0.322719 18.035594 0.000001 0.000000 0.000001 4.320484 2.436954 -4.811727 0.349127 -0.461246 26.890332 0.000002 -0.000004 -0.000001 -7.005632 -10.695123 5.719832 0.111859 -0.089203 26.155892 0.000001 0.000004 0.000003 -19.433507 -20.238187 5.987872 0.223761 -0.085819 36.844561 -0.000002 -0.000000 -0.000000 -38.843556 8.050729 26.435723 42.590471 -7.221112 -9.679307 -5.196404 -2.778835 -10.074064 -0.327618 1.238427 0.837254 0.000000 0.000000 -0.000000 -36.671429 -6.164108 -25.580191 47.512640 1.674749 -7.598835 -14.422144 3.648991 21.060033 -0.322762 -0.997444 -0.837125 -0.000000 0.000001 0.000000 
-0.333594 89.662216 0.250552 2.481797 -58.270386 5.987132 11.181137 0.127444 -2.716035 8.413341 0.007705 -5.542170 0.000000 0.000000 0.000000 8.435799 0.007773 -5.541680 -21.652133 24.945106 12.088955 0.094813 25.159311 -2.954654 0.000000 -0.000000 0.000001 -6.261263 -11.506427 -4.015211 0.000000 0.000000 0.000000 -22.811109 9.698537 -36.516613 0.794404 -43.624090 0.229695 22.724104 -5.775181 15.786080 -1.337167 -8.592343 8.462112 2.372304 19.986662 -2.038318 0.808501 1.237324 2.632226 0.000000 0.000000 0.000002 13.509669 -1.097526 9.424773 -0.159034 0.305436 -31.104053 -0.000000 -0.000000 0.000001 8.477593 -0.230337 -1.799016 0.234807 0.664023 -29.734341 0.000000 0.000002 -0.000003 6.088945 3.437392 -16.790625 0.051253 0.330244 -29.912093 0.000000 -0.000001 -0.000003 -5.699335 8.273525 -13.976719 0.209851 0.283975 -46.588498 0.000000 0.000002 -0.000000 -5.513955 10.443157 2.326547 0.000000 0.000000 0.000000 -40.253477 -26.263811 30.874292 22.710830 111.299490 -21.321702 -8.758532 12.223523 -9.454590 -0.163833 10.339076 -11.464030 1.370539 -17.420152 3.013305 3.335254 -13.256162 -8.261519 -0.000000 0.000000 0.000000 19.534078 10.739043 -14.196814 -0.102107 -0.326663 17.430843 0.000001 -0.000001 0.000000 4.417745 2.218608 -5.481765 0.352836 -0.461286 26.461889 0.000001 0.000000 0.000001 -6.982957 -10.920039 5.218393 0.085184 -0.090077 25.880162 -0.000003 0.000001 0.000000 -19.427696 -20.205241 5.922303 0.228604 -0.095103 36.799533 0.000002 -0.000000 -0.000000 -38.680294 7.977000 26.470675 42.862606 -7.291934 -9.596826 -5.362110 -2.728369 -10.078548 -0.327764 1.244791 0.837248 -0.000000 -0.000001 0.000000 -36.593722 -6.571855 -26.112956 47.657761 2.334138 -7.199369 -14.505459 3.712049 20.708389 -0.338892 -0.991438 -0.881456 -0.000000 0.000002 -0.000000 
-0.469411 89.502449 0.474085 1.760426 -58.212924 5.276987 11.142185 0.096707 -2.650113 8.334203 -0.045755 -5.404250 0.000000 0.000000 0.000000 8.356680 -0.045670 -5.403784 -21.836695 24.626049 12.153081 0.665323 24.715292 -2.781582 0.000000 0.000000 -0.000000 -6.328841 -11.488481 -3.983643 0.000000 0.000000 0.000000 -22.131660 10.073026 -36.144026 2.769411 -44.886873 0.926440 22.664434 -6.014899 15.253911 -1.443748 -9.455551 7.932155 2.372325 19.986675 -2.038383 0.808459 1.237303 2.632265 -0.000001 -0.000000 0.000001 13.845177 -1.532803 7.580815 -0.159339 0.304554 -30.882892 0.000002 -0.000003 -0.000005 8.524453 -0.343986 -3.219831 0.234605 0.663857 -29.653020 -0.000000 0.000000 -0.000000 6.136551 3.595754 -17.915509 0.051091 0.329943 -29.853606 -0.000001 -0.000000 0.000000 -5.678624 8.863577 -14.718651 0.209859 0.283885 -46.588532 0.000000 -0.000001 0.000001 -5.548072 9.866005 1.937130 0.000000 0.000000 0.000000 -37.030526 -24.874086 32.856922 15.981681 109.909177 -15.220829 -8.898762 11.688159 -8.523743 -1.286787 11.106082 -12.958750 1.370511 -17.420136 3.013315 3.335255 -13.256164 -8.261523 -0.000002 -0.000001 -0.000000 19.732828 9.623665 -16.324687 -0.104589 -0.322126 15.920310 -0.000000 0.000003 0.000003 4.635093 1.638513 -7.128994 0.347172 -0.458682 25.403418 -0.000003 -0.000000 0.000002 -6.943927 -11.513880 4.011804 0.085690 -0.087032 25.221618 0.000002 0.000004 0.000005 -19.419937 -20.160444 5.828232 0.228546 -0.095029 36.736538 0.000000 0.000000 0.000003 -38.552258 7.796537 26.586043 43.528218 -7.479816 -9.585768 -5.788841 -2.660127 -10.026695 -0.327774 1.244767 0.837249 0.000000 -0.000000 0.000000 -36.366751 -6.920590 -26.650758 47.987837 2.888187 -6.918759 -14.791760 3.705732 20.585290 -0.356253 -0.991228 -0.912633 -0.000000 0.000001 0.000000 
-0.691694 89.294106 0.801420 0.912704 -58.099508 4.437346 11.077083 0.051380 -2.551312 8.202127 -0.124056 -5.198295 0.000000 0.000000 0.000000 8.224610 -0.123930 -5.197838 -22.026527 24.153019 12.233268 1.675682 24.083959 -2.871053 0.000000 0.000000 -0.000000 -6.417281 -11.419018 -3.918481 0.000000 0.000000 0.000000 -21.132131 10.674324 -35.524463 5.610352 -46.795480 2.096763 22.562475 -6.361047 14.453073 -1.492394 -10.414532 7.157435 2.372314 19.986691 -2.038311 0.808472 1.237284 2.632222 0.000001 -0.000001 -0.000001 14.236163 -2.165280 5.410902 -0.159327 0.304533 -30.877147 -0.000000 -0.000001 -0.000002 8.587910 -0.569236 -4.948587 0.234568 0.663859 -29.620218 -0.000000 0.000003 -0.000002 6.219786 3.684099 -19.350747 0.051122 0.329974 -29.860228 0.000001 -0.000000 -0.000002 -5.600357 9.470244 -15.793791 0.209855 0.283944 -46.588532 0.000001 -0.000001 0.000000 -5.599944 9.021870 1.345362 0.000000 0.000000 0.000000 -32.495107 -22.695873 35.348138 4.343854 108.342107 -4.332112 -9.075127 10.910034 -7.177483 -2.857437 12.259154 -15.019031 1.370535 -17.420172 3.013327 3.335194 -13.256159 -8.261577 -0.000001 0.000001 -0.000000 19.872222 8.134585 -19.053716 -0.107669 -0.316140 13.960265 0.000001 0.000001 -0.000004 4.859954 0.812346 -9.209674 0.340103 -0.454430 24.055614 -0.000002 -0.000001 -0.000001 -6.928768 -12.352433 2.546294 0.086253 -0.083354 24.433241 -0.000000 0.000003 0.000003 -19.409232 -20.187449 5.864944 0.228628 -0.095088 36.763722 -0.000003 0.000001 0.000003 -38.410088 7.630249 26.830376 44.350249 -7.854106 -9.688645 -6.357294 -2.586240 -9.877331 -0.327744 1.244741 0.837240 -0.000000 -0.000000 0.000000 -35.939260 -7.236580 -27.111148 48.350670 3.268314 -6.764297 -15.205099 3.649695 20.621758 -0.402708 -0.990146 -0.961762 -0.000000 -0.000001 0.000000 
